<?xml version="1.0" encoding="UTF-8" standalone="no"?>
<!-- Created with Inkscape (http://www.inkscape.org/) -->

<svg
   xmlns:dc="http://purl.org/dc/elements/1.1/"
   xmlns:cc="http://creativecommons.org/ns#"
   xmlns:rdf="http://www.w3.org/1999/02/22-rdf-syntax-ns#"
   xmlns:svg="http://www.w3.org/2000/svg"
   xmlns="http://www.w3.org/2000/svg"
   xmlns:xlink="http://www.w3.org/1999/xlink"
   xmlns:sodipodi="http://sodipodi.sourceforge.net/DTD/sodipodi-0.dtd"
   xmlns:inkscape="http://www.inkscape.org/namespaces/inkscape"
   width="150"
   height="39.515347"
   viewBox="0 0 149.99999 39.515347"
   id="svg2"
   version="1.1"
   inkscape:version="0.91 r"
   sodipodi:docname="susper.svg">
  <defs
     id="defs4">
    <linearGradient
       inkscape:collect="always"
       id="linearGradient4170">
      <stop
         style="stop-color:#dfebed;stop-opacity:0.56078434"
         offset="0"
         id="stop4172" />
      <stop
         style="stop-color:#ffffff;stop-opacity:0"
         offset="1"
         id="stop4174" />
    </linearGradient>
    <linearGradient
       inkscape:collect="always"
       xlink:href="#linearGradient4170"
       id="linearGradient4176"
       x1="371.42856"
       y1="538.07648"
       x2="374.28571"
       y2="723.79077"
       gradientUnits="userSpaceOnUse"
       gradientTransform="matrix(1.0591583,0,0,0.57397102,69.538042,629.40533)" />
  </defs>
  <sodipodi:namedview
     id="base"
     pagecolor="#ffffff"
     bordercolor="#666666"
     borderopacity="1.0"
     inkscape:pageopacity="0.0"
     inkscape:pageshadow="2"
     inkscape:zoom="0.98994949"
     inkscape:cx="320.80581"
     inkscape:cy="148.57903"
     inkscape:document-units="px"
     inkscape:current-layer="layer1"
     showgrid="false"
     inkscape:window-width="1366"
     inkscape:window-height="741"
     inkscape:window-x="0"
     inkscape:window-y="0"
     inkscape:window-maximized="1"
     borderlayer="true"
     fit-margin-top="0"
     fit-margin-left="0"
     fit-margin-right="0"
     fit-margin-bottom="0"
     units="px" />
  <metadata
     id="metadata7">
    <rdf:RDF>
      <cc:Work
         rdf:about="">
        <dc:format>image/svg+xml</dc:format>
        <dc:type
           rdf:resource="http://purl.org/dc/dcmitype/StillImage" />
        <dc:title></dc:title>
      </cc:Work>
    </rdf:RDF>
  </metadata>
  <g
     inkscape:label="Layer 1"
     inkscape:groupmode="layer"
     id="layer1"
     style="display:inline"
     transform="translate(-75.287757,-1012.3122)">
    <g
       id="g4195"
       transform="matrix(0.19664177,0,0,0.19664177,60.483033,844.99433)">
      <g
         transform="matrix(0.96136386,0,0,1.1316811,14.674244,-46.316298)"
         style="font-style:normal;font-variant:normal;font-weight:300;font-stretch:normal;font-size:239.89517212px;line-height:125%;font-family:Existence;-inkscape-font-specification:'Existence, Light';text-align:start;letter-spacing:-23px;word-spacing:0px;writing-mode:lr-tb;text-anchor:start;fill:#899497;fill-opacity:1;stroke:#899497;stroke-width:2;stroke-linecap:butt;stroke-linejoin:miter;stroke-miterlimit:4;stroke-dasharray:none;stroke-opacity:1"
         id="text3336">
        <path
           inkscape:connector-curvature="0"
           d="m 491.42087,803.86111 0,80.35551 35.96085,0 q 19.56176,0 30.22116,-10.42513 10.77655,-10.42513 10.77655,-29.86976 0,-19.09322 -10.77655,-29.63549 -10.6594,-10.42513 -30.22116,-10.42513 l -35.96085,0 z m -11.71363,-9.72231 47.67448,0 q 26.12139,0 39.59207,12.65072 13.35354,12.65072 13.35354,37.13221 0,24.59863 -13.35354,37.24935 -13.47068,12.65072 -39.59207,12.65072 l -35.96085,0 0,75.20152 -11.71363,0 0,-174.88452 z"
           id="path4146" />
        <path
           inkscape:connector-curvature="0"
           d="m 601.37059,794.1388 98.86305,0 0,9.72231 -86.91515,0 0,67.11911 83.28392,0 0,9.48804 -83.28392,0 0,79.06701 89.0236,0 0,9.48805 -100.9715,0 0,-174.88452 z"
           id="path4148" />
        <path
           inkscape:connector-curvature="0"
           d="m 802.5695,887.0279 q 7.26245,2.57699 14.05636,11.01081 4.80259,6.09109 13.70495,23.19299 l 24.48148,47.79162 -12.53358,0 -24.95004,-48.02589 q -9.72231,-18.85895 -18.62467,-24.95004 -9.13663,-6.09109 -24.71576,-6.09109 l -31.74394,0 0,79.06702 -11.71363,0 0,-174.88452 47.4402,0 q 26.82422,0 40.06062,12.53358 13.23641,12.53359 13.23641,37.83503 0,16.28195 -6.91105,27.4099 -6.55963,10.89368 -21.78735,15.11059 z m -60.3252,-83.28392 0,76.49001 38.65498,0 q 18.74181,0 28.34699,-9.72232 9.60518,-9.72231 9.60518,-28.69839 0,-18.85895 -9.60518,-28.46413 -9.60518,-9.60517 -28.34699,-9.60517 l -38.65498,0 z"
           id="path4150" />
      </g>
      <g
         transform="matrix(0.95475868,0,0,1.1395102,14.674244,-46.316298)"
         style="font-style:normal;font-variant:normal;font-weight:300;font-stretch:normal;font-size:229.75247192px;line-height:125%;font-family:Existence;-inkscape-font-specification:'Existence, Light';text-align:start;letter-spacing:-22.92905426px;word-spacing:0px;writing-mode:lr-tb;text-anchor:start;fill:#899497;fill-opacity:1;stroke:#899497;stroke-width:1.90228021;stroke-linecap:butt;stroke-linejoin:miter;stroke-miterlimit:4;stroke-dasharray:none;stroke-opacity:1"
         id="text3336-6">
        <path
           inkscape:connector-curvature="0"
           d="m 165.62663,800.08026 0,10.54528 q -10.99401,-5.49701 -24.34389,-9.75999 -8.75034,-2.8046 -22.10021,-3.02897 -19.744354,-0.33655 -32.084574,8.75034 -11.218383,8.3016 -11.218383,28.49469 0,12.45241 8.525971,19.74435 9.08689,7.74069 27.372856,12.45241 l 13.34987,3.4777 q 17.94941,4.71172 27.70941,11.21838 18.28596,12.4524 18.28596,31.29929 0,27.26067 -16.04229,37.80595 -17.50067,11.33056 -35.89882,11.33056 -19.183435,0 -34.328251,-5.27264 -9.535625,-3.81425 -19.96872,-10.54528 l 0,-10.99401 q 15.705735,9.31126 21.988029,11.89148 14.022982,5.72138 26.026652,5.72138 20.52964,0 34.10388,-9.08689 12.78895,-8.52597 12.78895,-29.95308 0,-12.56459 -7.85286,-19.74436 -11.33057,-10.43309 -29.39217,-14.80826 l -13.46205,-3.25333 Q 92.931515,872.43883 81.600948,865.37124 64.436823,854.6016 64.436823,835.97908 q 0,-23.22205 14.022978,-35.67445 13.013324,-11.55494 39.488709,-11.66712 15.59355,0 23.89515,2.69241 21.31493,6.9554 23.78297,8.75034 z"
           style="stroke-width:1.90228021"
           id="path4153" />
      </g>
      <g
         transform="matrix(1.0007082,0,0,1.0871873,14.674244,-46.316298)"
         style="font-style:normal;font-variant:normal;font-weight:300;font-stretch:normal;font-size:215.89247131px;line-height:125%;font-family:Existence;-inkscape-font-specification:'Existence, Light';text-align:start;letter-spacing:0px;word-spacing:0px;writing-mode:lr-tb;text-anchor:start;fill:#1d1d64;fill-opacity:1;stroke:#1d1d64;stroke-width:21.54584312;stroke-linecap:butt;stroke-linejoin:miter;stroke-miterlimit:4;stroke-dasharray:none;stroke-opacity:1"
         id="text3336-1">
        <path
           inkscape:connector-curvature="0"
           d="m 184.28821,838.86147 10.54162,0 0,95.61253 q 0,29.93822 10.54163,43.11525 10.43621,13.07161 33.83861,13.07161 23.29699,0 33.7332,-13.07161 10.54163,-13.17703 10.54163,-43.11525 l 0,-95.61253 10.54162,0 0,98.24794 q 0,30.78154 -13.91494,46.48857 -13.80953,15.70702 -40.90151,15.70702 -27.19739,0 -41.00692,-15.70702 -13.91494,-15.70703 -13.91494,-46.48857 l 0,-98.24794 z"
           style="fill:#1d1d64;fill-opacity:1;stroke:#1d1d64;stroke-width:21.54584312;stroke-opacity:1"
           id="path4156" />
        <path
           inkscape:connector-curvature="0"
           d="m 432.54347,846.76769 0,9.90913 q -10.33079,-5.1654 -22.87532,-9.17122 -8.22247,-2.6354 -20.767,-2.84624 -18.55326,-0.31625 -30.14905,8.22247 -10.54162,7.8008 -10.54162,26.77573 0,11.7012 8.01163,18.55326 8.53872,7.27372 25.72157,11.7012 l 12.54453,3.2679 q 16.8666,4.42749 26.03781,10.54163 17.18285,11.7012 17.18285,29.41113 0,25.61615 -15.07452,35.52528 -16.44494,10.64704 -33.7332,10.64704 -18.02618,0 -32.25737,-4.95457 -8.96038,-3.58415 -18.7641,-9.90912 l 0,-10.3308 q 14.75828,8.74955 20.66159,11.17413 13.17703,5.37622 24.45657,5.37622 19.29117,0 32.04654,-8.53871 12.01745,-8.01164 12.01745,-28.14614 0,-11.80662 -7.37914,-18.55326 -10.64704,-9.80371 -27.61906,-13.91494 l -12.64994,-3.05707 q -15.17994,-3.68957 -25.82699,-10.3308 -16.12868,-10.11996 -16.12868,-27.61905 0,-21.82117 13.17703,-33.52237 12.22828,-10.85787 37.10652,-10.96329 14.65286,0 22.45366,2.52999 20.02909,6.53581 22.34824,8.22247 z"
           style="fill:#1d1d64;fill-opacity:1;stroke:#1d1d64;stroke-width:21.54584312;stroke-opacity:1"
           id="path4158" />
      </g>
      <path
         inkscape:connector-curvature="0"
         style="opacity:0.25700001;fill:url(#linearGradient4176);fill-opacity:1;stroke:none;stroke-width:2.16647816;stroke-miterlimit:4;stroke-dasharray:none;stroke-opacity:1"
         d="M 838.09617,990.72296 A 381.2088,60.629163 0 0 1 456.88738,1051.3521 381.2088,60.629163 0 0 1 75.678583,990.72296 381.2088,60.629163 0 0 1 456.88738,930.09381 381.2088,60.629163 0 0 1 838.09617,990.72296 Z"
         id="path4168" />
    </g>
  </g>
</svg>
