<?xml version="1.0" encoding="UTF-8" standalone="no"?>
<!-- Created with Inkscape (http://www.inkscape.org/) -->

<svg
   xmlns:dc="http://purl.org/dc/elements/1.1/"
   xmlns:cc="http://creativecommons.org/ns#"
   xmlns:rdf="http://www.w3.org/1999/02/22-rdf-syntax-ns#"
   xmlns:svg="http://www.w3.org/2000/svg"
   xmlns="http://www.w3.org/2000/svg"
   xmlns:sodipodi="http://sodipodi.sourceforge.net/DTD/sodipodi-0.dtd"
   xmlns:inkscape="http://www.inkscape.org/namespaces/inkscape"
   id="svg2"
   sodipodi:docname="fossasia-knitting.svg"
   viewBox="0 0 744.08997 1052.3998"
   sodipodi:version="0.32"
   inkscape:output_extension="org.inkscape.output.svg.inkscape"
   inkscape:version="0.92.3 (2405546, 2018-03-11)"
   version="1.1"
   width="69.999992cm"
   height="29.999996cm">
  <defs
     id="defs9" />
  <sodipodi:namedview
     id="base"
     bordercolor="#666666"
     inkscape:pageshadow="2"
     guidetolerance="10"
     pagecolor="#ffffff"
     gridtolerance="10000"
     inkscape:window-height="740"
     inkscape:zoom="0.175"
     objecttolerance="10"
     showgrid="false"
     borderopacity="1.0"
     inkscape:current-layer="layer1"
     inkscape:cx="1377.5494"
     inkscape:cy="-118.30026"
     inkscape:window-y="0"
     inkscape:window-x="0"
     inkscape:window-width="1366"
     inkscape:pageopacity="0.0"
     inkscape:document-units="px"
     fit-margin-top="0"
     fit-margin-left="0"
     fit-margin-right="0"
     fit-margin-bottom="0"
     inkscape:window-maximized="1"
     units="cm" />
  <g
     id="layer1"
     inkscape:label="Layer 1"
     inkscape:groupmode="layer"
     transform="translate(66.237559,32.647942)">
    <rect
       style="fill:#d6d7ef;fill-opacity:1;stroke:#ffffff;stroke-width:0;stroke-linecap:butt;stroke-linejoin:round;stroke-miterlimit:0;stroke-dasharray:none;stroke-opacity:0;paint-order:normal"
       id="rect835"
       width="2455.5999"
       height="1052.3999"
       x="-921.99249"
       y="-32.648006" />
    <text
       xml:space="preserve"
       style="font-style:normal;font-variant:normal;font-weight:normal;font-stretch:normal;font-size:10.7530365px;line-height:0%;font-family:'open sans';-inkscape-font-specification:'open sans';letter-spacing:0px;word-spacing:-11.43406296px;fill:#000000;fill-opacity:1;stroke:none;stroke-width:0.89608639"
       x="305.80746"
       y="493.55194"
       id="text833"><tspan
         sodipodi:role="line"
         id="tspan831"
         x="305.80746"
         y="493.55194"
         style="font-size:35.84345627px;line-height:0;stroke-width:0.89608639"> </tspan></text>
    <g
       id="g895"
       transform="translate(-1.1929004e-5,-6.5761051e-5)">
      <g
         transform="matrix(0.8960864,0,0,0.8960864,699.15203,22.031348)"
         id="g827">
        <path
           inkscape:connector-curvature="0"
           id="path2531"
           sodipodi:nodetypes="czzzzzzzzzzzzzzzzzzzzzzzzzzzzzzzzzzzzzzzzzzzzzzzzzzzzzzzzzcc"
           style="fill:none;stroke:#a64903;stroke-width:8.02569962;stroke-opacity:0.99216003"
           d="m 168.7512,305.95801 c 5.04,37.55 24.23,68.22 -4.28,92.22 -28.5,24.01 -61.676,38.81 -87.468999,67.21 -25.792,28.41 7.739,57.68 38.263999,41.47 30.525,-16.22 45.655,-43.24 31.445,-79.53 -14.2,-36.29 -33.578,-89.34 -27.702,-127.49 5.872,-38.15 39.582,-53.74 77.082,-34.63 37.5,19.12 8.53,58.21 -25.69,51.92 -34.21,-6.29 -67.711,-1.01 -91.915999,28.67 -24.206,29.68 -1.826,59.44 20.031,95.73 21.854999,36.28 52.244999,91.65 58.664999,136.29 6.42,44.65 -13.51,74.68 -15.93,111.3 -2.43,36.62 -5.81,73.83 31.26,102.29 37.08,28.46 111.33,27.71 147.87,4.1 36.54,-23.6 62.33,-47.5 96.53,-35.19 34.2,12.31 43.35,45.57 85.59,49.53 42.24,3.96 25.62,-48.9 -5.23,-61.06 -30.85,-12.17 -56.68,4.94 -79.77,28.44 -23.08,23.51 -56.16,60.57 -83.59,72.87 -27.43,12.3 -60.87,-16.04 -64.71,-47.57 -3.84,-31.52 17.74,-55.19 39.58,-27.77 21.84,27.42 23.28,50.08 44.1,69.78 20.82,19.71 48.03,28.5 75.79,-1.99 27.77,-30.5 50.25,-93.16 84.88,-131.32 34.63,-38.16 86.08,-56.32 134.56,-60.27 48.48,-3.94 81.66,-53.67 86.57001,-95.44 4.9,-41.77 -0.11,-79.66 -34.08001,-101.35 -33.97,-21.69 -74.53,-34.39 -102.72,-61.92 -28.18,-27.52 -9.1,-71.27 -13.83,-103.29 -4.73,-32.01 -64.41,-57.97 -58.42,-8.64 6,49.33 43.29,54.98 79.74,63.3 36.44,8.32 79.61,22.92 103.42,56.09 23.80001,33.18 -0.93,83.09 -36.29,85.42 -35.36,2.33 -12.32,-59.35 -0.49,-81.51 11.84,-22.16 17.3,-47.77 -1.39,-76.28 -18.69,-28.51 -43.51,-28.79 -82.13,-28.99 -38.61,-0.19 -95.48,6.71 -132.07,21.17 -36.59,14.46 -49.88,25.27 -78.58,56.69 -28.7,31.41 -78.83,85.38 -122.46,99.3 -43.63,13.92 -53.91,-30.44 -50.88,-61.51 3.04,-31.08 31.13,-60.92 68.96,-54.46 37.82,6.45 35.58,62.89 -1.5,66.25 -37.08,3.36 -76.57,15.69 -91.77,53.62 -15.19,37.92 7.56,70.52 37.4,91.63 29.84,21.11 62.69,14.75 99.1,24.82 36.4,10.07 83.82,33.38 95.96,71.04 12.13,37.66 -31.28,71.86 -62.03,53.23 -30.74,-18.63 -77.07,-56.59 -45.16,-76.97 31.92,-20.38 61.11,30.83 84.28,50.73 23.18,19.9 52.33,16.62 78.8,3.92 26.47,-12.69 43.59,-39.97 42.01,-74.28 -1.58,-34.31 -7.27,-75.24 -23.37,-109.71 -16.09,-34.46 -23.51,-81.71 -0.66,-113.99 22.85,-32.27 79.93,-9.87 87.55,24.31 7.61,34.19 8.29,89.78 -30.55,90.18 -38.84,0.39 -22.73,-55.45 -14,-91.14 8.74,-35.68 -21.15,-77.89 -48.75,-105.42 -27.59,-27.53 -57.89,-46.24 -85.03,-79.32 -27.13,-33.08 -92.88,-52.04 -123.76,-47.91 -59.16,2.04 -98.65,59.95 -103.23,115.43 z" />
        <path
           inkscape:connector-curvature="0"
           id="path2524"
           sodipodi:nodetypes="czzzzzzzzzzzzzzzzzzzzzzzzzzzzzzzzzzzzzzzzzzzzzzzzzzzzzzzcc"
           style="fill:none;stroke:#000000;stroke-width:7.47219992"
           d="m 228.14304,797.91157 c 18.99,-21.07 6.64,-96.63 -37.69,-102.44 -44.33002,-5.81 -86.50601,-9.72 -120.06001,-37.27 -33.545,-27.54 -19.531,-82.58 26.669,-85.98 46.20099,-3.4 11.904,44.03 -8.106,76.54 -20.01,32.5 19.258,112.76 66.17699,107.92 46.92002,-4.83 72.74002,-3.76 116.66002,-15.64 43.91,-11.88 90.03,-53.43 127.17,-85.67 37.15,-32.25 39.65,-93.83 14.75,-130.95 -24.89,-37.12 -75.91,-30.84 -107.03,-6.96 -31.11,23.89 -52.21,53.55 -68.45,91.84 -16.23,38.28 48.46,75.77 55.13,26.14 6.66,-49.62 -9.77,-96.38 -53.33,-96.8 -43.55,-0.42 -62.40002,53.61 -38.66,93.44 23.75,39.83 63.59,79.26 103.32,117.63 39.73,38.36 82.09,79.02 140.65,105.86 58.55,26.83 156.13,-28.85 165.19,-87.91 9.06,-59.05 -21.5,-103.06 3.31,-141.85 24.81,-38.78 83,-27.77 92,-72.96 8.99,-45.19 -76.51,-30.08 -77.67,19.9 -1.15,49.98 46.29,117.81 38.76,170.26 -7.52,52.45 -62.42,56.42 -94.76,23.1 -32.35,-33.32 39.26,-52.16 70.95,-38.94 31.69,13.22 63.39,-28.65 63.09,-63.57 -0.3,-34.92 -26.21,-62.58 -51.83,-95.08 -25.63,-32.49 -66.95,-62.91 -109.92,-91.37 -42.97,-28.45 -123.44,-28.14 -157.73,11.07 -34.29,39.21 -20.45,94.85 8.43,118.84 28.88,23.99 59.37,26.43 92.65,28.77 33.27,2.34 84,-14.69 79.64,-53.18 -4.36,-38.5 -76.47,-15.74 -97.16,19.21 -20.69,34.95 4.88,98.24 52.01,82.24 47.12,-16.01 66.41,-49.78 74.32,-107.69 7.92,-57.92 34.44,-156.3 39.48,-215.12 5.04,-58.82 -18.65,-78.41 -53.86,-109 -35.2,-30.59 -101.72,-29.83 -135.18,-3.43 -33.47,26.4 -66.48,51.41 -100.98,34.22 -34.49,-17.19 -65.27,-58.68 -97.2,-31.05 -31.93,27.62 28.94,63.95 62.65,47.28 33.71,-16.67 60.44,-59.91 96.41,-89.27 35.96,-29.37 85.13,3.05 82.2,51.16 -2.93,48.11 -48.77,3.35 -59.55,-28.55 -10.78,-31.9 -72.73,-60.58 -103.12,-29.37 -30.39,31.2 -44.78,68.11 -54.04,107.49 -9.27,39.39 -17.49,81.03 -15.38,120.09 2.11,39.07 15.66,82.48 46,107.43 30.35,24.95 83.04,40.98 110.47,8.72 27.43,-32.26 31.5,-67.28 23.9,-102.13 -7.6,-34.85 -32.21,-65.08 -67.27,-85.24 -35.07,-20.15 -45.41,25.27 -16.78,48.25 28.63,22.98 90.44,31.49 98.99,-12.62 8.55,-44.12 -41.31,-70.38 -81.57,-67.51 -40.26,2.88 -77.2,7.53 -116.62,21.79 -39.42,14.27 -84.89002,34.93 -123.92002,44.39 -39.02899,9.45 -69.01299,22.24 -87.61499,63.65 -18.602,41.41 8.989,121.37 47.839,146.63 38.84599,25.26 68.33599,27.67 90.22601,62.24 12.83,21.51 -12.45002,161.54 46.44,131.45 z" />
      </g>
      <text
         id="text827"
         y="452.05347"
         x="-777.10516"
         style="font-style:normal;font-variant:normal;font-weight:normal;font-stretch:normal;font-size:10.7530365px;line-height:0%;font-family:'open sans';-inkscape-font-specification:'open sans';letter-spacing:278.1468811px;word-spacing:-93.00693512px;fill:#000d5d;fill-opacity:1;stroke:none;stroke-width:7.28894424"
         xml:space="preserve"><tspan
           style="font-size:291.55776978px;line-height:1;letter-spacing:7.28894424px;word-spacing:7.28894424px;fill:#000d5d;stroke-width:7.28894424"
           y="452.05347"
           x="-777.10516"
           id="tspan825"
           sodipodi:role="line">FOSSASIA</tspan><tspan
           style="font-size:291.55776978px;line-height:1;letter-spacing:7.28894424px;word-spacing:7.28894424px;fill:#000d5d;stroke-width:7.28894424"
           id="tspan829"
           y="743.61121"
           x="-777.10516"
           sodipodi:role="line">KNITTING</tspan></text>
    </g>
  </g>
  <metadata
     id="metadata6">
    <rdf:RDF>
      <cc:Work>
        <dc:format>image/svg+xml</dc:format>
        <dc:type
           rdf:resource="http://purl.org/dc/dcmitype/StillImage" />
        <cc:license
           rdf:resource="http://creativecommons.org/publicdomain/zero/1.0/" />
        <dc:publisher>
          <cc:Agent
             rdf:about="http://openclipart.org/">
            <dc:title>Openclipart</dc:title>
          </cc:Agent>
        </dc:publisher>
        <dc:title></dc:title>
        <dc:date>2010-04-12T20:33:58</dc:date>
        <dc:description />
        <dc:source>https://openclipart.org/detail/46453/celtic-knot-by-sir-oj</dc:source>
        <dc:creator>
          <cc:Agent>
            <dc:title>sir-oj</dc:title>
          </cc:Agent>
        </dc:creator>
        <dc:subject>
          <rdf:Bag>
            <rdf:li>Celtic</rdf:li>
            <rdf:li>Celts</rdf:li>
            <rdf:li>Knot</rdf:li>
            <rdf:li>interlace</rdf:li>
          </rdf:Bag>
        </dc:subject>
      </cc:Work>
      <cc:License
         rdf:about="http://creativecommons.org/publicdomain/zero/1.0/">
        <cc:permits
           rdf:resource="http://creativecommons.org/ns#Reproduction" />
        <cc:permits
           rdf:resource="http://creativecommons.org/ns#Distribution" />
        <cc:permits
           rdf:resource="http://creativecommons.org/ns#DerivativeWorks" />
      </cc:License>
    </rdf:RDF>
  </metadata>
</svg>
