<?xml version="1.0" encoding="UTF-8" standalone="no"?>
<!-- Generator: Adobe Illustrator 16.0.0, SVG Export Plug-In . SVG Version: 6.00 Build 0)  -->

<svg
   xmlns:dc="http://purl.org/dc/elements/1.1/"
   xmlns:cc="http://creativecommons.org/ns#"
   xmlns:rdf="http://www.w3.org/1999/02/22-rdf-syntax-ns#"
   xmlns:svg="http://www.w3.org/2000/svg"
   xmlns="http://www.w3.org/2000/svg"
   xmlns:sodipodi="http://sodipodi.sourceforge.net/DTD/sodipodi-0.dtd"
   xmlns:inkscape="http://www.inkscape.org/namespaces/inkscape"
   version="1.1"
   x="0px"
   y="0px"
   width="200"
   height="160"
   viewBox="0 0 200 160"
   enable-background="new 0 0 226.771 226.771"
   xml:space="preserve"
   id="svg2"
   inkscape:version="0.91 r"
   sodipodi:docname="logo_opntec.svg"
   inkscape:export-filename="/home/makeman/git/fossasia.org/img/logo_opntec.png"
   inkscape:export-xdpi="100"
   inkscape:export-ydpi="100"><metadata
     id="metadata62"><rdf:RDF><cc:Work
         rdf:about=""><dc:format>image/svg+xml</dc:format><dc:type
           rdf:resource="http://purl.org/dc/dcmitype/StillImage" /><dc:title></dc:title></cc:Work></rdf:RDF></metadata><defs
     id="defs60" /><sodipodi:namedview
     pagecolor="#ffffff"
     bordercolor="#666666"
     borderopacity="1"
     objecttolerance="10"
     gridtolerance="10"
     guidetolerance="10"
     inkscape:pageopacity="0"
     inkscape:pageshadow="2"
     inkscape:window-width="1366"
     inkscape:window-height="741"
     id="namedview58"
     showgrid="false"
     fit-margin-top="0"
     fit-margin-left="0"
     fit-margin-right="0"
     fit-margin-bottom="0"
     inkscape:zoom="1.0406975"
     inkscape:cx="-57.586624"
     inkscape:cy="154.94974"
     inkscape:window-x="0"
     inkscape:window-y="0"
     inkscape:window-maximized="1"
     inkscape:current-layer="svg2" /><g
     id="bg"
     transform="scale(0.881947,0.70555447)"><rect
       y="0"
       width="226.771"
       height="226.772"
       id="rect5"
       x="0"
       style="fill:#ff8700" /></g><g
     id="g8"
     transform="translate(-13.387,-29.4135)"><g
       id="g12"><g
         id="g14"><path
           d="m 62.205,119.734 c -16.324,0 -29.605,-13.283 -29.605,-29.606 0,-16.327 13.281,-29.609 29.605,-29.609 16.326,0 29.607,13.282 29.607,29.609 0.001,16.323 -13.281,29.606 -29.607,29.606 z m 0,-45.009 c -8.493,0 -15.403,6.908 -15.403,15.404 0,8.49 6.91,15.403 15.403,15.403 8.493,0 15.403,-6.913 15.403,-15.403 0,-8.496 -6.91,-15.404 -15.403,-15.404 z"
           id="path16"
           inkscape:connector-curvature="0"
           style="fill:#ffffff" /></g><path
         d="m 150.847,97.148 c 0,7.055 -5.717,12.773 -12.771,12.773 -7.054,0 -12.773,-5.718 -12.773,-12.773 l 9.08,0 0,-14.044 -9.08,0 0,-9.735 c 0,-14.918 -12.135,-27.053 -27.052,-27.053 l 0,14.204 c 7.085,0 12.85,5.766 12.85,12.85 l 0,9.735 -9.062,0 0,14.044 9.062,0 c 0,14.698 11.956,26.656 26.652,26.656 14.696,0 26.653,-11.958 26.653,-26.656 l -13.559,0 z"
         id="path18"
         inkscape:connector-curvature="0"
         style="fill:#ffffff" /><path
         d="m 172.513,61.444 c -11.946,0 -21.663,9.716 -21.663,21.66 l 13.557,0 c 0,-4.548 3.688,-8.239 8.237,-8.239 4.549,0 8.238,3.69 8.238,8.239 l 13.292,0 c 0,-11.944 -9.718,-21.66 -21.661,-21.66 z"
         id="path20"
         inkscape:connector-curvature="0"
         style="fill:#ffffff" /></g><g
       id="g24"><path
         d="m 79.647,148.684 c 1.132,1.676 1.696,4.043 1.696,7.099 0,1.872 -0.292,3.54 -0.877,5.013 -0.581,1.471 -1.417,2.624 -2.51,3.456 -1.097,0.831 -2.374,1.246 -3.833,1.246 -1.823,0 -3.296,-0.635 -4.415,-1.913 l 0,8.346 -5.404,0.58 0,-25.761 4.753,0 0.275,2.017 c 0.709,-0.885 1.512,-1.542 2.412,-1.964 0.901,-0.421 1.806,-0.634 2.72,-0.634 2.328,10e-4 4.057,0.839 5.183,2.515 z m -3.915,7.169 c 0,-2.143 -0.248,-3.634 -0.737,-4.464 -0.487,-0.834 -1.235,-1.249 -2.238,-1.249 -0.571,0 -1.121,0.185 -1.659,0.562 -0.54,0.377 -0.999,0.896 -1.389,1.559 l 0,7.664 c 0.734,1.07 1.656,1.608 2.775,1.608 2.165,0 3.248,-1.893 3.248,-5.68 z"
         id="path26"
         inkscape:connector-curvature="0"
         style="fill:#ffffff" /><path
         d="m 100.468,157.427 -11.223,0 c 0.163,1.526 0.581,2.601 1.269,3.216 0.684,0.615 1.625,0.926 2.838,0.926 0.73,0 1.435,-0.136 2.117,-0.395 0.688,-0.263 1.427,-0.669 2.229,-1.217 l 2.219,3.014 c -2.116,1.685 -4.481,2.528 -7.076,2.528 -2.945,0 -5.205,-0.863 -6.78,-2.598 -1.57,-1.733 -2.355,-4.06 -2.355,-6.981 0,-1.846 0.327,-3.506 0.988,-4.978 0.668,-1.469 1.634,-2.634 2.913,-3.487 1.276,-0.855 2.805,-1.285 4.58,-1.285 2.627,0 4.675,0.82 6.16,2.465 1.481,1.643 2.221,3.923 2.221,6.84 -0.002,0.752 -0.037,1.402 -0.1,1.952 z m -5.203,-3.492 c -0.043,-2.78 -1.024,-4.172 -2.942,-4.172 -0.934,0 -1.651,0.335 -2.15,1.009 -0.504,0.675 -0.826,1.81 -0.96,3.406 l 6.053,0 0,-0.243 z"
         id="path28"
         inkscape:connector-curvature="0"
         style="fill:#ffffff" /><path
         d="m 118.018,147.608 c 0.889,0.958 1.332,2.305 1.332,4.038 l 0,13.273 -5.403,0 0,-12.35 c 0,-0.912 -0.146,-1.546 -0.428,-1.898 -0.287,-0.355 -0.712,-0.53 -1.281,-0.53 -1.097,0 -2.146,0.787 -3.15,2.361 l 0,12.418 -5.403,0 0,-18.17 4.721,0 0.377,2.158 c 0.797,-0.914 1.647,-1.598 2.547,-2.052 0.902,-0.458 1.899,-0.687 2.993,-0.687 1.573,10e-4 2.802,0.482 3.695,1.439 z"
         id="path30"
         inkscape:connector-curvature="0"
         style="fill:#ffffff" /><path
         d="m 133.346,145.52 0,19.399 -5.61,0 0,-19.399 -6.126,0 0,-4.31 18.131,0 -0.548,4.31 -5.847,0 z"
         id="path32"
         inkscape:connector-curvature="0"
         style="fill:#ffffff" /><path
         d="m 154.895,157.427 -11.22,0 c 0.159,1.526 0.582,2.601 1.265,3.216 0.684,0.615 1.63,0.926 2.843,0.926 0.728,0 1.436,-0.136 2.119,-0.395 0.682,-0.263 1.425,-0.669 2.224,-1.217 l 2.224,3.014 c -2.116,1.685 -4.482,2.528 -7.078,2.528 -2.946,0 -5.2,-0.863 -6.779,-2.598 -1.571,-1.733 -2.357,-4.06 -2.357,-6.981 0,-1.846 0.329,-3.506 0.991,-4.978 0.661,-1.469 1.631,-2.634 2.906,-3.487 1.277,-0.855 2.805,-1.285 4.587,-1.285 2.626,0 4.675,0.82 6.155,2.465 1.485,1.643 2.226,3.923 2.226,6.84 -0.002,0.752 -0.038,1.402 -0.106,1.952 z m -5.2,-3.492 c -0.043,-2.78 -1.025,-4.172 -2.941,-4.172 -0.935,0 -1.652,0.335 -2.156,1.009 -0.504,0.675 -0.819,1.81 -0.957,3.406 l 6.055,0 0,-0.243 z"
         id="path34"
         inkscape:connector-curvature="0"
         style="fill:#ffffff" /><path
         d="m 169.366,146.719 c 1.005,0.365 1.953,0.924 2.844,1.677 l -2.364,3.249 c -1.093,-0.889 -2.237,-1.336 -3.422,-1.336 -1.206,0 -2.12,0.447 -2.733,1.336 -0.615,0.89 -0.927,2.328 -0.927,4.31 0,1.917 0.312,3.273 0.927,4.073 0.613,0.795 1.501,1.195 2.667,1.195 0.637,0 1.208,-0.102 1.714,-0.306 0.497,-0.206 1.058,-0.547 1.672,-1.029 l 2.467,3.456 c -1.806,1.439 -3.847,2.155 -6.126,2.155 -1.848,0 -3.445,-0.392 -4.789,-1.181 -1.35,-0.784 -2.389,-1.893 -3.112,-3.316 -0.734,-1.424 -1.097,-3.097 -1.097,-5.012 0,-1.915 0.362,-3.615 1.097,-5.096 0.724,-1.481 1.763,-2.64 3.112,-3.473 1.344,-0.833 2.908,-1.25 4.684,-1.25 1.252,-0.001 2.383,0.183 3.386,0.548 z"
         id="path36"
         inkscape:connector-curvature="0"
         style="fill:#ffffff" /><path
         d="m 188.834,147.608 c 0.888,0.958 1.332,2.305 1.332,4.038 l 0,13.273 -5.405,0 0,-12.35 c 0,-0.912 -0.145,-1.546 -0.442,-1.898 -0.298,-0.355 -0.719,-0.53 -1.264,-0.53 -1.098,0 -2.147,0.776 -3.15,2.324 l 0,12.455 -5.407,0 0,-25.385 5.407,-0.548 0,9.681 c 0.751,-0.843 1.554,-1.47 2.395,-1.881 0.845,-0.408 1.789,-0.616 2.839,-0.616 1.573,-0.001 2.807,0.48 3.695,1.437 z"
         id="path38"
         inkscape:connector-curvature="0"
         style="fill:#ffffff" /></g><path
       d="m 48.854,140.559 c -5.9,0 -10.869,4.063 -12.248,9.539 l 6.216,0 c 1.127,-2.187 3.406,-3.689 6.032,-3.689 3.74,0 6.783,3.043 6.783,6.785 0,3.739 -3.043,6.782 -6.783,6.782 -2.626,0 -4.905,-1.5 -6.032,-3.689 l -6.216,0 c 1.379,5.477 6.348,9.542 12.248,9.542 6.968,0 12.632,-5.667 12.632,-12.635 0,-6.969 -5.664,-12.635 -12.632,-12.635 z"
       id="path40"
       inkscape:connector-curvature="0"
       style="fill:#ffffff" /></g></svg>