<?xml version="1.0" encoding="UTF-8" standalone="no"?>
<!-- Created with Inkscape (http://www.inkscape.org/) -->

<svg
   xmlns:dc="http://purl.org/dc/elements/1.1/"
   xmlns:cc="http://creativecommons.org/ns#"
   xmlns:rdf="http://www.w3.org/1999/02/22-rdf-syntax-ns#"
   xmlns:svg="http://www.w3.org/2000/svg"
   xmlns="http://www.w3.org/2000/svg"
   xmlns:sodipodi="http://sodipodi.sourceforge.net/DTD/sodipodi-0.dtd"
   xmlns:inkscape="http://www.inkscape.org/namespaces/inkscape"
   width="6cm"
   height="3.5cm"
   viewBox="0 0 60 34.999997"
   version="1.1"
   id="svg903"
   inkscape:version="0.92.3 (2405546, 2018-03-11)"
   sodipodi:docname="scrumhelper.svg">
  <defs
     id="defs897" />
  <sodipodi:namedview
     id="base"
     pagecolor="#ffffff"
     bordercolor="#666666"
     borderopacity="1.0"
     inkscape:pageopacity="0.0"
     inkscape:pageshadow="2"
     inkscape:zoom="3.959798"
     inkscape:cx="120.11789"
     inkscape:cy="77.304374"
     inkscape:document-units="mm"
     inkscape:current-layer="layer1"
     showgrid="false"
     fit-margin-top="0"
     fit-margin-left="0"
     fit-margin-right="0"
     fit-margin-bottom="0"
     units="cm"
     inkscape:window-width="1366"
     inkscape:window-height="740"
     inkscape:window-x="0"
     inkscape:window-y="0"
     inkscape:window-maximized="1" />
  <metadata
     id="metadata900">
    <rdf:RDF>
      <cc:Work
         rdf:about="">
        <dc:format>image/svg+xml</dc:format>
        <dc:type
           rdf:resource="http://purl.org/dc/dcmitype/StillImage" />
        <dc:title />
      </cc:Work>
    </rdf:RDF>
  </metadata>
  <g
     inkscape:label="Layer 1"
     inkscape:groupmode="layer"
     id="layer1"
     transform="translate(-3.3966277,-211.73221)">
    <g
       id="g1611"
       transform="translate(0.50630093,-0.58994287)">
      <g
         transform="matrix(0.2178293,0,0,0.2178293,5.4591355,192.18727)"
         id="g1602">
        <path
           inkscape:connector-curvature="0"
           id="path1565"
           d="m 245.06718,175.72004 c -0.097,-0.097 -0.4517,-0.91681 -0.17639,-1.71979 v -1.5434 H 62.592872 c -9.752525,0 -10.040566,-0.063 -7.209895,-1.57581 2.02411,-1.08179 4.575156,-3.02115 6.680112,-5.07838 l 1.719175,-1.68019 3.770929,-0.0857 177.337597,-0.0857 v -1.44399 c 0,-2.36969 0.39025,-2.21923 4.26082,1.64274 1.87979,1.87563 3.48894,3.63434 3.57588,3.90825 0.12178,0.38369 -0.68288,1.34059 -3.50504,4.16816 -2.01471,2.01857 -3.73416,3.67013 -3.821,3.67013 -0.0868,0 -0.23726,-0.0794 -0.33427,-0.17639 z M 6.15833,172.29036 c -0.10246,-0.10246 -0.18629,-1.87828 -0.18629,-3.94626 0,-2.7585 0.0914,-3.83584 0.34328,-4.04486 0.23534,-0.19531 6.03822,-0.31405 18.45469,-0.37761 19.790511,-0.10131 18.896447,-0.0348 22.860255,-1.70172 11.679398,-4.91175 16.42796,-19.22836 10.119256,-30.5089 -1.498253,-2.67901 -5.177636,-6.35839 -7.856648,-7.85664 -14.043342,-7.85382 -31.246483,1.43388 -32.195153,17.38164 -0.0822,1.38245 -0.0192,3.34698 0.14019,4.36563 0.29091,1.85975 1.2404,5.11496 1.60285,5.49523 0.10672,0.11196 0.70676,0.0227 1.33342,-0.19844 1.3232,-0.46685 2.13119,-0.51626 2.13119,-0.13031 0,0.52034 -4.35741,9.50889 -4.66731,9.62781 -0.30993,0.11893 -8.81874,-3.78791 -9.52333,-4.37266 -0.51134,-0.42437 -0.0816,-0.87045 1.21181,-1.25798 0.5777,-0.17308 1.12179,-0.43025 1.20907,-0.57149 0.0873,-0.14123 -0.15066,-1.17789 -0.52878,-2.3037 -1.16866,-3.47952 -1.53732,-6.33551 -1.37528,-10.65409 0.17708,-4.71948 0.92577,-7.8884 2.68298,-11.35609 0.38922,-0.76809 0.65816,-1.44604 0.59764,-1.50655 -0.0605,-0.0605 -0.80855,-0.29198 -1.6623,-0.51435 -5.63683,-1.46821 -10.16619,-6.20961 -11.35896,-11.89071 -0.50008,-2.38189 -0.49546,-3.65171 0.0224,-6.15896 1.26529,-6.12568 5.94802,-10.808405 12.0737,-12.073698 2.50726,-0.51789 3.77707,-0.522515 6.15896,-0.02244 2.70113,0.567108 5.42746,2.010865 7.51379,3.978998 l 1.78172,1.68079 1.04079,-0.63941 c 1.30483,-0.80162 1.70315,-0.81583 1.69886,-0.0606 -0.005,0.93157 -1.74492,8.13799 -2.0344,8.42746 -0.29068,0.29068 -8.49516,-1.46692 -8.94243,-1.9157 -0.17657,-0.17717 -0.0697,-0.41324 0.32142,-0.70971 0.3223,-0.24433 0.85808,-0.65121 1.19062,-0.90417 l 0.60463,-0.45993 -0.79375,-0.66419 c -2.28158,-1.90916 -5.68578,-2.49034 -8.45847,-1.44406 -2.13628,0.80612 -4.08227,2.75211 -4.88839,4.88839 -1.5479,4.102 0.3665,8.80066 4.31188,10.58299 3.39974,1.53583 5.77012,1.08275 9.92665,-1.8974 7.9853,-5.7253 16.735649,-7.47318 25.758231,-5.1452 10.157176,2.62072 18.661294,11.13196 21.381706,21.3996 2.733828,10.31833 -0.27317,21.25506 -7.944408,28.89453 -3.73066,3.7152 -8.499242,6.46804 -13.628878,7.86776 l -2.645833,0.72196 -18.797568,0.0807 c -10.33866,0.0444 -18.88139,-0.003 -18.98385,-0.10562 z"
           style="fill:#181c57;stroke-width:0.26458332"
           sodipodi:nodetypes="cscscccccsccsscccscscssccccscccccssccccsccccccccccccccssccccccc" />
        <path
           inkscape:connector-curvature="0"
           id="path1557"
           d="m 6.61664,171.58227 c -0.0729,-0.18997 -0.0989,-1.82708 -0.0578,-3.63802 l 0.0747,-3.29261 18.25625,-0.14575 c 16.512311,-0.13183 18.407894,-0.191 19.843748,-0.61945 13.402042,-3.99902 20.097731,-18.16985 14.411891,-30.50149 -2.363809,-5.12671 -5.767441,-8.53951 -10.881418,-10.91075 -5.503897,-2.55203 -11.433233,-2.74396 -17.112236,-0.5539 -6.219505,2.39849 -11.428855,8.14081 -13.322475,14.68551 -0.52344,1.8091 -0.61022,2.69334 -0.59725,6.08541 0.0137,3.56691 0.0865,4.18356 0.71975,6.09025 0.38751,1.16682 0.87474,2.35422 1.08274,2.63868 0.36377,0.49749 0.42958,0.50075 1.72765,0.0856 0.74221,-0.23735 1.34947,-0.34075 1.34947,-0.22977 0,0.49123 -3.98528,8.48083 -4.23031,8.48083 -0.40651,0 -8.44945,-3.80852 -8.46034,-4.00617 -0.005,-0.0933 0.49632,-0.37204 1.11436,-0.61933 0.61804,-0.24729 1.19611,-0.56676 1.28459,-0.70993 0.0885,-0.14318 -0.17391,-1.2337 -0.58311,-2.42338 -2.00707,-5.8353 -2.05778,-12.97651 -0.13227,-18.62486 2.46507,-7.23111 4.29788,-9.93502 9.22553,-13.61028 7.00295,-5.2231 13.988884,-7.36712 21.517533,-6.60386 18.397436,1.86517 30.645347,19.69913 25.614915,37.2974 -2.626511,9.18848 -9.51452,16.56701 -18.434687,19.74749 -4.671544,1.66563 -5.509535,1.72375 -24.854471,1.72375 -14.09012,0 -17.44954,-0.0661 -17.55672,-0.34541 z"
           style="fill:#3187c4;stroke-width:0.26458332" />
      </g>
      <text
         id="text1580"
         y="226.6163"
         x="20.455053"
         style="font-style:normal;font-variant:normal;font-weight:normal;font-stretch:normal;font-size:16.10660362px;line-height:0;font-family:'open sans';-inkscape-font-specification:'open sans';letter-spacing:0px;word-spacing:-5.13800716px;fill:#181c57;fill-opacity:1;stroke:none;stroke-width:0.40266505"
         xml:space="preserve"><tspan
           style="font-style:normal;font-variant:normal;font-weight:normal;font-stretch:normal;font-family:sans-serif;-inkscape-font-specification:sans-serif;word-spacing:0px;fill:#181c57;stroke-width:0.40266505"
           y="226.6163"
           x="20.455053"
           id="tspan1578"
           sodipodi:role="line">crum</tspan></text>
      <text
         id="text1580-3"
         y="242.77429"
         x="5.2261763"
         style="font-style:normal;font-variant:normal;font-weight:normal;font-stretch:normal;font-size:16.7237339px;line-height:0;font-family:'open sans';-inkscape-font-specification:'open sans';letter-spacing:0px;word-spacing:-5.33487082px;opacity:0.98999999;fill:#3187c4;fill-opacity:1;stroke:none;stroke-width:0.2178293;stroke-miterlimit:4;stroke-dasharray:none;stroke-opacity:1"
         xml:space="preserve"><tspan
           style="font-style:normal;font-variant:normal;font-weight:normal;font-stretch:normal;font-family:sans-serif;-inkscape-font-specification:sans-serif;word-spacing:0px;fill:#3187c4;fill-opacity:1;stroke:none;stroke-width:0.2178293;stroke-miterlimit:4;stroke-dasharray:none;stroke-opacity:1"
           y="242.77429"
           x="5.2261763"
           id="tspan1578-6"
           sodipodi:role="line">Helper</tspan></text>
    </g>
  </g>
</svg>
