<?xml version="1.0" encoding="UTF-8" standalone="no"?>
<!-- Created with Inkscape (http://www.inkscape.org/) -->

<svg
   xmlns:dc="http://purl.org/dc/elements/1.1/"
   xmlns:cc="http://creativecommons.org/ns#"
   xmlns:rdf="http://www.w3.org/1999/02/22-rdf-syntax-ns#"
   xmlns:svg="http://www.w3.org/2000/svg"
   xmlns="http://www.w3.org/2000/svg"
   xmlns:sodipodi="http://sodipodi.sourceforge.net/DTD/sodipodi-0.dtd"
   xmlns:inkscape="http://www.inkscape.org/namespaces/inkscape"
   width="6cm"
   height="3.5cm"
   viewBox="0 0 60 34.999997"
   version="1.1"
   id="svg903"
   inkscape:version="0.92.3 (2405546, 2018-03-11)"
   sodipodi:docname="scrumhelper-path.svg">
  <defs
     id="defs897" />
  <sodipodi:namedview
     id="base"
     pagecolor="#ffffff"
     bordercolor="#666666"
     borderopacity="1.0"
     inkscape:pageopacity="0.0"
     inkscape:pageshadow="2"
     inkscape:zoom="3.959798"
     inkscape:cx="120.11789"
     inkscape:cy="77.304374"
     inkscape:document-units="mm"
     inkscape:current-layer="layer1"
     showgrid="false"
     fit-margin-top="0"
     fit-margin-left="0"
     fit-margin-right="0"
     fit-margin-bottom="0"
     units="cm"
     inkscape:window-width="1366"
     inkscape:window-height="740"
     inkscape:window-x="0"
     inkscape:window-y="0"
     inkscape:window-maximized="1" />
  <metadata
     id="metadata900">
    <rdf:RDF>
      <cc:Work
         rdf:about="">
        <dc:format>image/svg+xml</dc:format>
        <dc:type
           rdf:resource="http://purl.org/dc/dcmitype/StillImage" />
        <dc:title></dc:title>
      </cc:Work>
    </rdf:RDF>
  </metadata>
  <g
     inkscape:label="Layer 1"
     inkscape:groupmode="layer"
     id="layer1"
     transform="translate(-3.3966277,-211.73221)">
    <g
       id="g1611"
       transform="translate(0.50630093,-0.58994287)">
      <g
         transform="matrix(0.2178293,0,0,0.2178293,5.4591355,192.18727)"
         id="g1602">
        <path
           inkscape:connector-curvature="0"
           id="path1565"
           d="m 245.06718,175.72004 c -0.097,-0.097 -0.4517,-0.91681 -0.17639,-1.71979 v -1.5434 H 62.592872 c -9.752525,0 -10.040566,-0.063 -7.209895,-1.57581 2.02411,-1.08179 4.575156,-3.02115 6.680112,-5.07838 l 1.719175,-1.68019 3.770929,-0.0857 177.337597,-0.0857 v -1.44399 c 0,-2.36969 0.39025,-2.21923 4.26082,1.64274 1.87979,1.87563 3.48894,3.63434 3.57588,3.90825 0.12178,0.38369 -0.68288,1.34059 -3.50504,4.16816 -2.01471,2.01857 -3.73416,3.67013 -3.821,3.67013 -0.0868,0 -0.23726,-0.0794 -0.33427,-0.17639 z M 6.15833,172.29036 c -0.10246,-0.10246 -0.18629,-1.87828 -0.18629,-3.94626 0,-2.7585 0.0914,-3.83584 0.34328,-4.04486 0.23534,-0.19531 6.03822,-0.31405 18.45469,-0.37761 19.790511,-0.10131 18.896447,-0.0348 22.860255,-1.70172 11.679398,-4.91175 16.42796,-19.22836 10.119256,-30.5089 -1.498253,-2.67901 -5.177636,-6.35839 -7.856648,-7.85664 -14.043342,-7.85382 -31.246483,1.43388 -32.195153,17.38164 -0.0822,1.38245 -0.0192,3.34698 0.14019,4.36563 0.29091,1.85975 1.2404,5.11496 1.60285,5.49523 0.10672,0.11196 0.70676,0.0227 1.33342,-0.19844 1.3232,-0.46685 2.13119,-0.51626 2.13119,-0.13031 0,0.52034 -4.35741,9.50889 -4.66731,9.62781 -0.30993,0.11893 -8.81874,-3.78791 -9.52333,-4.37266 -0.51134,-0.42437 -0.0816,-0.87045 1.21181,-1.25798 0.5777,-0.17308 1.12179,-0.43025 1.20907,-0.57149 0.0873,-0.14123 -0.15066,-1.17789 -0.52878,-2.3037 -1.16866,-3.47952 -1.53732,-6.33551 -1.37528,-10.65409 0.17708,-4.71948 0.92577,-7.8884 2.68298,-11.35609 0.38922,-0.76809 0.65816,-1.44604 0.59764,-1.50655 -0.0605,-0.0605 -0.80855,-0.29198 -1.6623,-0.51435 -5.63683,-1.46821 -10.16619,-6.20961 -11.35896,-11.89071 -0.50008,-2.38189 -0.49546,-3.65171 0.0224,-6.15896 1.26529,-6.12568 5.94802,-10.808405 12.0737,-12.073698 2.50726,-0.51789 3.77707,-0.522515 6.15896,-0.02244 2.70113,0.567108 5.42746,2.010865 7.51379,3.978998 l 1.78172,1.68079 1.04079,-0.63941 c 1.30483,-0.80162 1.70315,-0.81583 1.69886,-0.0606 -0.005,0.93157 -1.74492,8.13799 -2.0344,8.42746 -0.29068,0.29068 -8.49516,-1.46692 -8.94243,-1.9157 -0.17657,-0.17717 -0.0697,-0.41324 0.32142,-0.70971 0.3223,-0.24433 0.85808,-0.65121 1.19062,-0.90417 l 0.60463,-0.45993 -0.79375,-0.66419 c -2.28158,-1.90916 -5.68578,-2.49034 -8.45847,-1.44406 -2.13628,0.80612 -4.08227,2.75211 -4.88839,4.88839 -1.5479,4.102 0.3665,8.80066 4.31188,10.58299 3.39974,1.53583 5.77012,1.08275 9.92665,-1.8974 7.9853,-5.7253 16.735649,-7.47318 25.758231,-5.1452 10.157176,2.62072 18.661294,11.13196 21.381706,21.3996 2.733828,10.31833 -0.27317,21.25506 -7.944408,28.89453 -3.73066,3.7152 -8.499242,6.46804 -13.628878,7.86776 l -2.645833,0.72196 -18.797568,0.0807 c -10.33866,0.0444 -18.88139,-0.003 -18.98385,-0.10562 z"
           style="fill:#181c57;stroke-width:0.26458332"
           sodipodi:nodetypes="cscscccccsccsscccscscssccccscccccssccccsccccccccccccccssccccccc" />
        <path
           inkscape:connector-curvature="0"
           id="path1557"
           d="m 6.61664,171.58227 c -0.0729,-0.18997 -0.0989,-1.82708 -0.0578,-3.63802 l 0.0747,-3.29261 18.25625,-0.14575 c 16.512311,-0.13183 18.407894,-0.191 19.843748,-0.61945 13.402042,-3.99902 20.097731,-18.16985 14.411891,-30.50149 -2.363809,-5.12671 -5.767441,-8.53951 -10.881418,-10.91075 -5.503897,-2.55203 -11.433233,-2.74396 -17.112236,-0.5539 -6.219505,2.39849 -11.428855,8.14081 -13.322475,14.68551 -0.52344,1.8091 -0.61022,2.69334 -0.59725,6.08541 0.0137,3.56691 0.0865,4.18356 0.71975,6.09025 0.38751,1.16682 0.87474,2.35422 1.08274,2.63868 0.36377,0.49749 0.42958,0.50075 1.72765,0.0856 0.74221,-0.23735 1.34947,-0.34075 1.34947,-0.22977 0,0.49123 -3.98528,8.48083 -4.23031,8.48083 -0.40651,0 -8.44945,-3.80852 -8.46034,-4.00617 -0.005,-0.0933 0.49632,-0.37204 1.11436,-0.61933 0.61804,-0.24729 1.19611,-0.56676 1.28459,-0.70993 0.0885,-0.14318 -0.17391,-1.2337 -0.58311,-2.42338 -2.00707,-5.8353 -2.05778,-12.97651 -0.13227,-18.62486 2.46507,-7.23111 4.29788,-9.93502 9.22553,-13.61028 7.00295,-5.2231 13.988884,-7.36712 21.517533,-6.60386 18.397436,1.86517 30.645347,19.69913 25.614915,37.2974 -2.626511,9.18848 -9.51452,16.56701 -18.434687,19.74749 -4.671544,1.66563 -5.509535,1.72375 -24.854471,1.72375 -14.09012,0 -17.44954,-0.0661 -17.55672,-0.34541 z"
           style="fill:#3187c4;stroke-width:0.26458332" />
      </g>
      <g
         aria-label="crum"
         style="font-style:normal;font-variant:normal;font-weight:normal;font-stretch:normal;font-size:16.10660362px;line-height:0;font-family:'open sans';-inkscape-font-specification:'open sans';letter-spacing:0px;word-spacing:-5.13800716px;fill:#181c57;fill-opacity:1;stroke:none;stroke-width:0.40266505"
         id="text1580">
        <path
           d="m 28.311741,218.14618 v 1.3527 q -0.613435,-0.33817 -1.234734,-0.50333 -0.613436,-0.17302 -1.2426,-0.17302 -1.407755,0 -2.186345,0.89656 -0.778591,0.88869 -0.778591,2.50093 0,1.61223 0.778591,2.50879 0.77859,0.88869 2.186345,0.88869 0.629164,0 1.2426,-0.16515 0.621299,-0.17302 1.234734,-0.5112 v 1.33698 q -0.60557,0.28312 -1.258328,0.42468 -0.644893,0.14156 -1.376297,0.14156 -1.989732,0 -3.16155,-1.25046 -1.171818,-1.25046 -1.171818,-3.37389 0,-2.15489 1.179683,-3.38962 1.187547,-1.23474 3.24806,-1.23474 0.668487,0 1.305516,0.14156 0.637028,0.1337 1.234734,0.40896 z"
           style="font-style:normal;font-variant:normal;font-weight:normal;font-stretch:normal;font-family:sans-serif;-inkscape-font-specification:sans-serif;word-spacing:0px;fill:#181c57;stroke-width:0.40266505"
           id="path72" />
        <path
           d="m 35.948221,219.16071 q -0.243801,-0.14157 -0.534789,-0.20448 -0.283124,-0.0708 -0.629164,-0.0708 -1.226871,0 -1.887493,0.80218 -0.652758,0.79432 -0.652758,2.28859 v 4.64008 h -1.454942 v -8.8083 h 1.454942 v 1.36844 q 0.456144,-0.80219 1.187548,-1.18755 0.731403,-0.39323 1.777389,-0.39323 0.149426,0 0.330311,0.0236 0.180884,0.0157 0.401092,0.0551 z"
           style="font-style:normal;font-variant:normal;font-weight:normal;font-stretch:normal;font-family:sans-serif;-inkscape-font-specification:sans-serif;word-spacing:0px;fill:#181c57;stroke-width:0.40266505"
           id="path74" />
        <path
           d="M 37.332383,223.14017 V 217.808 h 1.447078 v 5.27712 q 0,1.25046 0.487602,1.87963 0.487602,0.6213 1.462807,0.6213 1.171818,0 1.84817,-0.74714 0.684216,-0.74713 0.684216,-2.03692 V 217.808 h 1.447078 v 8.8083 h -1.447078 v -1.3527 q -0.526925,0.80218 -1.22687,1.19541 -0.692081,0.38536 -1.612234,0.38536 -1.517858,0 -2.304313,-0.94374 -0.786456,-0.94375 -0.786456,-2.76046 z m 3.641288,-5.54451 z"
           style="font-style:normal;font-variant:normal;font-weight:normal;font-stretch:normal;font-family:sans-serif;-inkscape-font-specification:sans-serif;word-spacing:0px;fill:#181c57;stroke-width:0.40266505"
           id="path76" />
        <path
           d="m 54.563617,219.49888 q 0.542654,-0.9752 1.297651,-1.43921 0.754997,-0.46401 1.777389,-0.46401 1.376296,0 2.123429,0.96734 0.747132,0.95948 0.747132,2.73686 v 5.31644 h -1.454942 v -5.26925 q 0,-1.26619 -0.448279,-1.87963 -0.44828,-0.61343 -1.368433,-0.61343 -1.124631,0 -1.777388,0.74713 -0.652758,0.74713 -0.652758,2.03692 v 4.97826 h -1.454943 v -5.26925 q 0,-1.27406 -0.448279,-1.87963 -0.448279,-0.61343 -1.384161,-0.61343 -1.108902,0 -1.76166,0.755 -0.652758,0.74713 -0.652758,2.02905 v 4.97826 h -1.454942 v -8.8083 h 1.454942 v 1.36844 q 0.495467,-0.81005 1.187548,-1.19542 0.69208,-0.38536 1.643691,-0.38536 0.959475,0 1.627962,0.4876 0.676352,0.48761 0.998799,1.41562 z"
           style="font-style:normal;font-variant:normal;font-weight:normal;font-stretch:normal;font-family:sans-serif;-inkscape-font-specification:sans-serif;word-spacing:0px;fill:#181c57;stroke-width:0.40266505"
           id="path78" />
      </g>
      <g
         aria-label="Helper"
         style="font-style:normal;font-variant:normal;font-weight:normal;font-stretch:normal;font-size:16.7237339px;line-height:0;font-family:'open sans';-inkscape-font-specification:'open sans';letter-spacing:0px;word-spacing:-5.33487082px;opacity:0.98999999;fill:#3187c4;fill-opacity:1;stroke:none;stroke-width:0.2178293;stroke-miterlimit:4;stroke-dasharray:none;stroke-opacity:1"
         id="text1580-3">
        <path
           d="m 6.8675193,230.58262 h 1.6495089 v 4.99753 h 5.9937598 v -4.99753 h 1.649509 v 12.19167 h -1.649509 v -5.80594 H 8.5170282 v 5.80594 H 6.8675193 Z"
           style="font-style:normal;font-variant:normal;font-weight:normal;font-stretch:normal;font-family:sans-serif;-inkscape-font-specification:sans-serif;word-spacing:0px;fill:#3187c4;fill-opacity:1;stroke:none;stroke-width:0.2178293;stroke-miterlimit:4;stroke-dasharray:none;stroke-opacity:1"
           id="path81" />
        <path
           d="m 27.200575,237.82577 v 0.73492 h -6.908339 q 0.09799,1.55152 0.930911,2.36811 0.841086,0.80842 2.335443,0.80842 0.865584,0 1.674006,-0.21231 0.816589,-0.21231 1.616846,-0.63694 v 1.42087 q -0.808423,0.34296 -1.657675,0.52261 -0.849252,0.17965 -1.723002,0.17965 -2.188457,0 -3.470501,-1.27388 -1.273878,-1.27387 -1.273878,-3.446 0,-2.24562 1.208551,-3.56033 1.216717,-1.32287 3.27452,-1.32287 1.84549,0 2.915221,1.19222 1.077897,1.18405 1.077897,3.22553 z m -1.502523,-0.44096 q -0.01633,-1.23305 -0.6941,-1.96798 -0.669603,-0.73493 -1.780163,-0.73493 -1.257547,0 -2.016974,0.71043 -0.751262,0.71043 -0.865584,2.00064 z"
           style="font-style:normal;font-variant:normal;font-weight:normal;font-stretch:normal;font-family:sans-serif;-inkscape-font-specification:sans-serif;word-spacing:0px;fill:#3187c4;fill-opacity:1;stroke:none;stroke-width:0.2178293;stroke-miterlimit:4;stroke-dasharray:none;stroke-opacity:1"
           id="path83" />
        <path
           d="m 29.666671,230.06817 h 1.502523 v 12.70612 h -1.502523 z"
           style="font-style:normal;font-variant:normal;font-weight:normal;font-stretch:normal;font-family:sans-serif;-inkscape-font-specification:sans-serif;word-spacing:0px;fill:#3187c4;fill-opacity:1;stroke:none;stroke-width:0.2178293;stroke-miterlimit:4;stroke-dasharray:none;stroke-opacity:1"
           id="path85" />
        <path
           d="m 35.758423,241.40242 v 4.85054 H 34.247734 V 233.6285 h 1.510689 v 1.3882 q 0.473621,-0.81659 1.192219,-1.20855 0.726764,-0.40013 1.731168,-0.40013 1.66584,0 2.702908,1.32287 1.045233,1.32288 1.045233,3.47867 0,2.1558 -1.045233,3.47867 -1.037068,1.32287 -2.702908,1.32287 -1.004404,0 -1.731168,-0.39196 -0.718598,-0.40013 -1.192219,-1.21672 z m 5.111844,-3.19286 q 0,-1.65767 -0.685934,-2.59675 -0.677769,-0.94724 -1.869988,-0.94724 -1.19222,0 -1.878154,0.94724 -0.677768,0.93908 -0.677768,2.59675 0,1.65768 0.677768,2.60492 0.685934,0.93908 1.878154,0.93908 1.192219,0 1.869988,-0.93908 0.685934,-0.94724 0.685934,-2.60492 z"
           style="font-style:normal;font-variant:normal;font-weight:normal;font-stretch:normal;font-family:sans-serif;-inkscape-font-specification:sans-serif;word-spacing:0px;fill:#3187c4;fill-opacity:1;stroke:none;stroke-width:0.2178293;stroke-miterlimit:4;stroke-dasharray:none;stroke-opacity:1"
           id="path87" />
        <path
           d="m 52.743465,237.82577 v 0.73492 h -6.908339 q 0.09799,1.55152 0.930911,2.36811 0.841086,0.80842 2.335443,0.80842 0.865584,0 1.674007,-0.21231 0.816589,-0.21231 1.616845,-0.63694 v 1.42087 q -0.808422,0.34296 -1.657674,0.52261 -0.849252,0.17965 -1.723002,0.17965 -2.188458,0 -3.470502,-1.27388 -1.273878,-1.27387 -1.273878,-3.446 0,-2.24562 1.208551,-3.56033 1.216717,-1.32287 3.27452,-1.32287 1.845491,0 2.915222,1.19222 1.077896,1.18405 1.077896,3.22553 z m -1.502522,-0.44096 q -0.01633,-1.23305 -0.694101,-1.96798 -0.669602,-0.73493 -1.780163,-0.73493 -1.257546,0 -2.016974,0.71043 -0.751261,0.71043 -0.865583,2.00064 z"
           style="font-style:normal;font-variant:normal;font-weight:normal;font-stretch:normal;font-family:sans-serif;-inkscape-font-specification:sans-serif;word-spacing:0px;fill:#3187c4;fill-opacity:1;stroke:none;stroke-width:0.2178293;stroke-miterlimit:4;stroke-dasharray:none;stroke-opacity:1"
           id="path89" />
        <path
           d="m 60.509224,235.03303 q -0.253143,-0.14698 -0.555281,-0.21231 -0.293972,-0.0735 -0.653271,-0.0735 -1.273878,0 -1.959812,0.83292 -0.677769,0.82475 -0.677769,2.37627 v 4.81787 h -1.510688 v -9.14579 h 1.510688 v 1.42086 q 0.473622,-0.83292 1.233049,-1.23304 0.759427,-0.4083 1.84549,-0.4083 0.155152,0 0.342967,0.0245 0.187816,0.0163 0.416461,0.0572 z"
           style="font-style:normal;font-variant:normal;font-weight:normal;font-stretch:normal;font-family:sans-serif;-inkscape-font-specification:sans-serif;word-spacing:0px;fill:#3187c4;fill-opacity:1;stroke:none;stroke-width:0.2178293;stroke-miterlimit:4;stroke-dasharray:none;stroke-opacity:1"
           id="path91" />
      </g>
    </g>
  </g>
</svg>
